<svg xmlns="http://www.w3.org/2000/svg"
     width="40" height="40"
     viewBox="0 0 16 16"
     shape-rendering="geometricPrecision"
     role="img"
     aria-label="Debug sound icon (16)"
>

<!--    <rect width="40" height="16" fill="black"/>-->
    <g transform="translate(0 1.8)">
    <path d="M4 4.0 Q2.2 6.5 4.0 9.0"
          fill="none" stroke="#59A869" stroke-width="1"
          stroke-linecap="round" stroke-linejoin="round" opacity="0.55"/>
    <path d="M2.8 2.5 Q0 6.5 2.8 10.5"
          fill="none" stroke="#59A869" stroke-width="1"
          stroke-linecap="round" stroke-linejoin="round" opacity="0.25"/>

    <path d="M12 4.0 Q13.8 6.5 12 9.0"
          fill="none" stroke="#59A869" stroke-width="1"
          stroke-linecap="round" stroke-linejoin="round" opacity="0.55"/>
    <path d="M13.2 2.5 Q16 6.5 13.2 10.5"
          fill="none" stroke="#59A869" stroke-width="1"
          stroke-linecap="round" stroke-linejoin="round" opacity="0.25"/>
    </g>

    <g transform="translate(4.15 4) scale(0.015)"
       fill="none"
       stroke="#59A869"
       stroke-linecap="round"
       stroke-linejoin="round"
       stroke-width="32"
       >

        <path d="M370,378c28.89,23.52,46,46.07,46,86"/>
        <path d="M142,378c-28.89,23.52-46,46.06-46,86"/>
        <path d="M384,208c28.89-23.52,32-56.07,32-96"/>
        <path d="M128,206c-28.89-23.52-32-54.06-32-94"/>

        <line x1="464" y1="288.13" x2="384" y2="288.13"/>
        <line x1="126" y1="288.13" x2="48" y2="288.13"/>
        <line x1="256" y1="140" x2="256" y2="448"/>

        <path d="M255,448h0c-70.4,0-128-57.6-128-128V223.93c0-65.07,57.6-96,128-96h0c70.4,0,128,25.6,128,96V320C384,390.4,326.4,448,256,448Z"/>

        <path d="M179.43,143.52A49.08,49.08,0,0,1,176,127.79,80,80,0,0,1,255.79,48h.42A80,80,0,0,1,336,127.79a41.91,41.91,0,0,1-3.12,14.3"/>
    </g>
</svg>